<svg xmlns="http://www.w3.org/2000/svg" viewBox="0 0 468 468"><path fill="#0795fe" d="M150.024 231.921h151.879l-.117-217.415C301.781 6.493 295.275 0 287.25 0H181.643a14.532 14.532 0 0 0-14.099 10.982l-17.572 69.943h64.81v52.643H47.417c-7.995 0-14.536 6.531-14.536 14.514v165.704c0 8.016 6.508 14.514 14.536 14.514h102.607v-96.379z"/><path fill="#fff" d="M207.024 33.008h14.353v13.934h-14.353zM404.583 133.569H301.992l-.089 98.353H150.024l.185 205.587c.007 8.011 6.513 14.492 14.536 14.492h105.611a14.532 14.532 0 0 0 14.099-10.982l17.572-69.943h-64.81V328.3h167.365c8.028 0 14.536-6.498 14.536-14.514V148.083c.001-8.016-6.507-14.514-14.535-14.514z"/><path fill="#e6e7e8" d="M240.846 417.789h-90.661c.01 3.427.018 12.684.024 19.72.007 8.011 6.513 14.491 14.536 14.491h105.611a14.532 14.532 0 0 0 14.099-10.983l17.572-69.943h-39.49l-7.472 35.209c-1.422 6.708-7.352 11.506-14.219 11.506zm163.737-284.22h-22.842v157.41h-128.76c-7.745 0-14.13 6.064-14.518 13.788l-1.245 24.84V328.3h167.365c8.028 0 14.536-6.498 14.536-14.514V148.083c0-8.016-6.508-14.514-14.536-14.514z"/><path fill="#3e4d6c" d="M270.357 468H164.745c-16.823 0-30.521-13.672-30.536-30.478-.009-9.361-.077-59.869-.099-84.332l32-.029c.022 24.457.089 74.011.097 82.839h103.011l12.292-48.926h-44.292c-8.836 0-16-7.163-16-16V328.3c0-8.837 7.164-16 16-16h165.901V149.568H326.91v-32h77.673c16.837 0 30.536 13.688 30.536 30.515v165.703c0 16.825-13.698 30.514-30.536 30.514H253.218v10.774h48.81c10.262 0 18.019 9.946 15.518 19.898l-17.572 69.943A30.492 30.492 0 0 1 270.357 468z"/><path fill="#3e4d6c" d="M239.155 408.03h14.353v13.934h-14.353z"/></svg>